<?xml version="1.0" encoding="UTF-8" standalone="no"?>
<!DOCTYPE svg PUBLIC "-//W3C//DTD SVG 1.1//EN" "http://www.w3.org/Graphics/SVG/1.1/DTD/svg11.dtd">
<svg width="100%" height="100%" viewBox="0 0 1080 1080" version="1.1" xmlns="http://www.w3.org/2000/svg" xmlns:xlink="http://www.w3.org/1999/xlink" xml:space="preserve" xmlns:serif="http://www.serif.com/" style="fill-rule:evenodd;clip-rule:evenodd;stroke-linejoin:round;stroke-miterlimit:2;">
    <g transform="matrix(6.9645,0,0,7.26723,540,540)">
        <g id="home" transform="matrix(1,0,0,1,-75.5,-75)">
            <g transform="matrix(1,0,0,1,-1.04309,-0.334912)">
                <g id="Home" opacity="0.96">
                    <g transform="matrix(0.974372,0,0,1.05627,2.63407,-7.50609)">
                        <path d="M94.177,73.402L101.111,73.402C117.942,73.402 126.357,78.242 126.357,87.921C126.357,90.013 125.827,91.931 124.766,93.674C123.705,95.417 122.091,96.944 119.924,98.255C117.758,99.567 115.378,100.459 112.784,100.933L112.784,101.101C115.79,101.435 118.487,102.279 120.875,103.632C123.262,104.985 125.105,106.672 126.402,108.695C127.699,110.717 128.347,112.816 128.347,114.992C128.347,120.877 126.166,125.417 121.803,128.611C117.441,131.805 111.207,133.402 103.101,133.402L76.15,130.125L74.424,80.313L71.661,69.357L51.402,69.357L50.805,92.321L26.079,91.666L49.462,16.949L74.833,16.949L94.177,73.402ZM108.053,114.908C108.053,113.179 107.389,111.756 106.063,110.64C104.737,109.525 102.983,108.967 100.802,108.967L93.285,108.967L85.888,119.365L99.652,121.226C102.246,121.226 104.295,120.661 105.798,119.531C107.301,118.402 108.053,116.861 108.053,114.908ZM106.063,91.059C106.063,87.349 102.983,85.494 96.822,85.494L93.285,85.494L89.923,96.213L98.812,96.833C100.934,96.833 102.673,96.296 104.029,95.222C105.385,94.148 106.063,92.76 106.063,91.059ZM58.049,44.246C57.422,46.616 56.935,48.408 56.957,48.158L58.049,44.246C58.247,43.499 58.459,42.693 58.673,41.876C59.775,37.823 60.428,35.352 60.633,34.463C60.837,33.575 59.727,37.864 58.673,41.876C57.74,45.315 56.484,49.891 54.905,55.605L75.737,49.708L63.141,38.136C62.479,35.568 62.021,33.164 61.769,30.925L58.049,44.246Z" style="fill:white;fill-rule:nonzero;stroke:black;stroke-width:0.98px;"/>
                    </g>
                </g>
            </g>
        </g>
        <g id="home1" serif:id="home">
        </g>
    </g>
</svg>
